<?xml version="1.0" encoding="UTF-8"?><!DOCTYPE svg PUBLIC "-//W3C//DTD SVG 1.1//EN"
    "http://www.w3.org/Graphics/SVG/1.1/DTD/svg11.dtd"><!-- Creator: CorelDRAW X7 -->
<svg style="shape-rendering:geometricPrecision; text-rendering:geometricPrecision; image-rendering:optimizeQuality; fill-rule:evenodd; clip-rule:evenodd" height="5.84646in" version="1.1" viewBox="0 0 82677 58465" width="8.26772in" xmlns="http://www.w3.org/2000/svg"
xml:space="preserve"
 >
 <defs>
  <style type="text/css">
   <![CDATA[
    .fil0 {fill:#FEFEFE}
    .fil1 {fill:#FEFEFE;fill-opacity:0.000000}
    .fil2 {fill:#FEFEFE;fill-opacity:0.501961}
   ]]>
  </style>
 </defs>
 <g id="Layer_x0020_1">
  <metadata id="CorelCorpID_0Corel-Layer"/>
  <path class="fil0" d="M82677 35574l0 986c-11979,-14857 -34380,-30092 -54752,-36560l14694 0c14746,7833 28107,19668 40058,35574zm-48378 -23122c-12776,-4759 -24876,-7197 -34299,-7340l0 -1c9423,143 21523,2581 34299,7341zm48378 30022l0 15990 0 1c-27559,0 -55118,0 -82677,0l0 -1 0 -44954c21538,-277 57061,5243 82677,28964z"/>
  <path class="fil1" d="M42619 0l40058 0 0 35574c-11951,-15906 -25312,-27741 -40058,-35574zm-42619 5112c21538,327 57061,12642 82677,37264l0 98c-25616,-23721 -61139,-29241 -82677,-28964l0 -8398z"/>
  <path class="fil2" d="M0 0l27925 0c20372,6468 42773,21703 54752,36560l0 5817c-25616,-24622 -61138,-36938 -82677,-37266l0 -5111z"/>
 </g>
</svg>
